<?xml version="1.0" standalone="no"?>
<!DOCTYPE svg PUBLIC "-//W3C//DTD SVG 20010904//EN"
 "http://www.w3.org/TR/2001/REC-SVG-20010904/DTD/svg10.dtd">
<svg version="1.0" xmlns="http://www.w3.org/2000/svg"
 width="800.000000pt" height="300.000000pt" viewBox="0 0 800.000000 300.000000"
 preserveAspectRatio="xMidYMid meet">

<g transform="translate(0.000000,300.000000) scale(0.100000,-0.100000)"
fill="#000000" stroke="none">
<path d="M3107 2420 c-210 -38 -359 -138 -431 -290 -29 -60 -31 -73 -31 -175
0 -100 3 -116 29 -172 l29 -63 360 0 361 0 -114 77 c-179 121 -251 207 -266
314 -17 124 82 239 206 239 22 0 39 -21 116 -137 50 -76 108 -167 130 -202
l38 -63 123 128 c67 71 122 132 123 136 0 14 -135 120 -190 148 -96 49 -155
61 -300 65 -74 2 -157 0 -183 -5z"/>
<path d="M4670 2397 l-146 -20 -116 -326 -116 -326 80 -3 c44 -2 82 -1 84 1 3
2 22 89 43 193 21 104 41 182 44 174 4 -8 28 -94 55 -190 l49 -175 213 -3
c168 -2 211 0 208 10 -3 7 -58 162 -123 343 -64 182 -120 333 -124 336 -3 3
-71 -3 -151 -14z"/>
<path d="M1260 1580 c-11 -11 -20 -26 -20 -33 0 -20 30 -44 65 -53 33 -8 55
-22 55 -35 0 -17 -49 -29 -76 -19 -34 13 -53 2 -29 -17 28 -20 92 -16 115 7
11 11 20 26 20 34 0 16 -27 46 -41 46 -5 0 -25 7 -44 14 -57 24 -20 69 38 47
18 -7 28 -7 33 1 20 31 -85 39 -116 8z"/>
<path d="M1570 1585 c0 -10 10 -15 30 -15 l30 0 0 -80 c0 -64 3 -80 15 -80 12
0 15 15 15 79 l0 80 33 3 c61 6 32 23 -45 26 -65 2 -78 0 -78 -13z"/>
<path d="M1920 1527 c0 -64 3 -76 23 -95 32 -30 81 -29 112 3 22 21 25 33 25
95 0 56 -3 70 -15 70 -12 0 -15 -13 -15 -61 0 -75 -12 -99 -48 -99 -42 0 -52
17 -52 92 0 54 -3 68 -15 68 -12 0 -15 -15 -15 -73z"/>
<path d="M2300 1505 l0 -97 66 4 c58 4 70 8 90 32 15 17 24 40 24 61 0 21 -9
44 -24 61 -20 24 -32 28 -90 32 l-66 4 0 -97z m130 45 c45 -45 10 -110 -60
-110 l-40 0 0 65 0 65 40 0 c27 0 47 -7 60 -20z"/>
<path d="M2690 1505 l0 -95 70 0 c56 0 70 3 70 15 0 12 -13 15 -55 15 -52 0
-55 1 -55 25 0 23 4 25 45 25 33 0 45 4 45 15 0 11 -12 15 -45 15 -41 0 -45 2
-45 25 0 23 3 25 50 25 38 0 50 4 50 15 0 12 -14 15 -65 15 l-65 0 0 -95z"/>
<path d="M3030 1504 c0 -83 2 -95 16 -92 14 2 17 15 17 61 -1 31 3 57 7 57 5
0 30 -27 56 -60 66 -84 74 -81 74 35 0 78 -3 95 -15 95 -12 0 -15 -13 -15 -60
0 -33 -3 -60 -7 -59 -5 0 -30 27 -56 60 -69 84 -77 80 -77 -37z"/>
<path d="M3392 1588 c3 -7 19 -14 36 -16 l32 -3 0 -80 c0 -64 3 -79 15 -79 12
0 15 16 15 80 l0 80 30 0 c20 0 30 5 30 15 0 12 -16 15 -81 15 -60 0 -80 -3
-77 -12z"/>
<path d="M4027 1563 c-8 -21 -27 -64 -41 -95 -21 -47 -23 -58 -11 -58 9 0 21
11 27 25 10 21 18 25 58 25 40 0 48 -4 58 -25 11 -25 49 -37 39 -12 -3 6 -22
49 -42 95 -43 94 -64 105 -88 45z m56 -43 l15 -40 -34 0 c-19 0 -34 3 -34 7 0
14 24 73 30 73 4 0 14 -18 23 -40z"/>
<path d="M4360 1505 c0 -76 3 -95 15 -95 10 0 15 16 17 62 l3 62 50 -62 c28
-34 56 -62 63 -62 9 0 12 26 12 95 0 78 -3 95 -15 95 -12 0 -15 -13 -15 -60 0
-33 -3 -60 -7 -59 -5 0 -30 27 -56 60 -26 32 -52 59 -57 59 -6 0 -10 -40 -10
-95z"/>
<path d="M4760 1514 c-22 -47 -40 -90 -40 -95 0 -19 27 -8 38 16 10 21 18 25
57 25 39 0 47 -4 57 -25 14 -31 42 -35 33 -4 -21 65 -76 169 -90 169 -10 0
-30 -31 -55 -86z m75 10 c8 -20 15 -38 15 -40 0 -2 -16 -4 -35 -4 -19 0 -35 2
-35 5 0 11 29 75 34 75 3 0 13 -16 21 -36z"/>
<path d="M5110 1505 l0 -95 65 0 c51 0 65 3 65 15 0 11 -12 15 -50 15 l-50 0
0 80 c0 64 -3 80 -15 80 -12 0 -15 -17 -15 -95z"/>
<path d="M5440 1505 c0 -78 3 -95 15 -95 12 0 15 17 15 95 0 78 -3 95 -15 95
-12 0 -15 -17 -15 -95z"/>
<path d="M5660 1585 c0 -10 11 -15 35 -15 l35 0 0 -80 c0 -64 3 -80 15 -80 12
0 15 16 15 80 l0 80 30 0 c20 0 30 5 30 15 0 12 -16 15 -80 15 -64 0 -80 -3
-80 -15z"/>
<path d="M6020 1505 c0 -78 3 -95 15 -95 12 0 15 17 15 95 0 78 -3 95 -15 95
-12 0 -15 -17 -15 -95z"/>
<path d="M6294 1585 c-78 -54 -34 -175 64 -175 37 0 71 24 56 40 -8 8 -14 9
-18 1 -4 -6 -22 -11 -40 -11 -67 0 -96 86 -42 122 17 12 71 9 83 -3 8 -8 13
-7 18 2 21 33 -80 53 -121 24z"/>
<path d="M6638 1589 c-21 -12 -24 -62 -5 -77 6 -6 26 -14 42 -18 33 -8 55 -22
55 -36 0 -15 -44 -26 -74 -17 -37 11 -55 0 -31 -18 25 -18 85 -17 113 3 48 33
20 79 -60 98 -19 4 -28 13 -28 26 0 24 40 36 68 21 15 -8 23 -8 28 0 15 26
-71 40 -108 18z"/>
<path d="M3290 1253 c65 -73 86 -169 57 -250 -36 -97 -132 -177 -216 -177
l-45 -1 -67 110 c-36 61 -94 163 -129 228 -43 81 -66 115 -74 109 -37 -28
-243 -187 -250 -193 -13 -12 58 -115 121 -175 114 -110 271 -164 478 -164 189
0 311 36 432 127 112 84 173 197 181 336 l5 87 -263 0 -262 0 32 -37z"/>
<path d="M4061 1080 c-41 -115 -79 -214 -85 -220 -5 -5 -34 -10 -63 -10 l-53
0 0 -40 0 -40 275 0 275 0 0 40 0 40 -58 0 c-32 0 -61 2 -64 5 -3 3 13 95 35
205 l40 200 208 0 c189 0 208 -2 213 -17 46 -153 105 -377 100 -384 -3 -5 -30
-9 -60 -9 l-54 0 0 -40 0 -40 365 0 365 0 0 40 0 40 -54 0 c-31 0 -58 5 -63
13 -5 6 -43 105 -83 220 l-73 207 -546 0 -546 0 -74 -210z"/>
<path d="M3146 409 c-15 -34 -24 -64 -21 -68 4 -3 11 2 16 12 13 23 65 23 78
0 5 -10 12 -16 14 -13 7 7 -43 130 -53 130 -4 0 -19 -28 -34 -61z m48 5 c9
-23 8 -24 -14 -24 -11 0 -20 2 -20 4 0 12 13 36 20 36 4 0 11 -7 14 -16z"/>
<path d="M3400 404 c0 -36 4 -63 9 -60 5 3 8 22 7 41 -1 19 1 35 5 35 3 0 19
-18 34 -40 15 -22 32 -40 36 -40 5 0 9 29 9 65 0 37 -4 65 -10 65 -5 0 -10
-21 -10 -47 l0 -48 -33 47 c-17 26 -35 48 -39 48 -5 0 -8 -30 -8 -66z"/>
<path d="M3691 426 c-28 -63 -34 -86 -23 -86 6 0 12 7 16 15 8 21 56 19 72 -2
7 -10 15 -16 17 -13 7 7 -45 130 -54 130 -5 0 -17 -20 -28 -44z m42 -16 c4
-15 0 -20 -15 -20 -14 0 -18 5 -14 16 3 9 6 20 6 25 0 17 17 1 23 -21z"/>
<path d="M3938 464 c-5 -4 -8 -34 -8 -66 l0 -58 40 0 c22 0 40 5 40 10 0 6
-13 10 -30 10 -28 0 -29 1 -32 56 -2 31 -6 52 -10 48z"/>
<path d="M4170 405 c0 -37 4 -65 10 -65 6 0 10 28 10 65 0 37 -4 65 -10 65 -6
0 -10 -28 -10 -65z"/>
<path d="M4373 463 c-7 -2 -13 -16 -13 -29 0 -19 8 -28 30 -35 17 -6 30 -17
30 -25 0 -18 -47 -19 -53 -1 -2 6 -8 9 -12 5 -12 -12 15 -38 39 -38 51 0 61
49 15 71 -38 17 -35 35 4 32 23 -1 26 1 16 13 -11 14 -33 17 -56 7z"/>
<path d="M4600 405 c0 -37 4 -65 10 -65 6 0 10 28 10 65 0 37 -4 65 -10 65 -6
0 -10 -28 -10 -65z"/>
<path d="M4802 458 c-23 -23 -13 -47 24 -63 19 -8 33 -19 29 -25 -8 -14 -38
-13 -53 2 -17 17 -28 2 -12 -17 16 -20 54 -19 75 1 21 22 15 36 -23 53 -42 19
-44 46 -2 38 31 -7 42 6 14 17 -24 9 -39 7 -52 -6z"/>
</g>
</svg>
